<svg id="Layer_1" data-name="Layer 1" xmlns="http://www.w3.org/2000/svg" viewBox="0 0 512 512"><title>increase-graph-bars-glyph</title><path d="M309.34,243H224.56a17.14,17.14,0,0,0-17.14,17.13v234.5a17.14,17.14,0,0,0,17.14,17.14h84.78a17.14,17.14,0,0,0,17.14-17.14V260.08A17.14,17.14,0,0,0,309.34,243Z" fill="#212121"/><path d="M490.33,125.7H405.55a17.14,17.14,0,0,0-17.14,17.13V494.59a17.14,17.14,0,0,0,17.14,17.14h84.78a17.14,17.14,0,0,0,17.14-17.14V142.83A17.14,17.14,0,0,0,490.33,125.7Z" fill="#212121"/><path d="M43.56,319a17.14,17.14,0,0,0-17.14,17.14V494.86A17.14,17.14,0,0,0,43.56,512h84.78a17.14,17.14,0,0,0,17.13-17.14V336.12A17.14,17.14,0,0,0,128.34,319Z" fill="#212121"/><path d="M6.1,175.64a27,27,0,0,0,34.56,16.42l243.81-86.78-1.86,3.92a27.06,27.06,0,1,0,48.88,23.21l30.18-63.54a27.06,27.06,0,0,0-12.83-36.05L285.31,2.63a27.06,27.06,0,0,0-23.22,48.88L267.26,54,22.52,141.08A27,27,0,0,0,6.1,175.64Z" fill="#212121"/></svg>